<svg width="140" height="140" viewBox="0 0 140 140" fill="none" xmlns="http://www.w3.org/2000/svg">
<g id="checkmark number">
<circle id="Ellipse 6" cx="70" cy="70" r="70" fill="#8C0101"/>
<path id="x" d="M55.6949 47C56.4048 47 57.0615 47.3763 57.4204 47.9888L68.4296 66.7763C69.2022 68.0948 71.1082 68.0948 71.8808 66.7763L82.89 47.9888C83.2489 47.3763 83.9056 47 84.6156 47H89.6379C91.2221 47 92.1775 48.7542 91.318 50.0851L76.0659 73.7012C75.6393 74.3617 75.6393 75.2108 76.0659 75.8713L91.318 99.4874C92.1775 100.818 91.2221 102.572 89.6379 102.572H84.5851C83.8916 102.572 83.2477 102.213 82.8833 101.623L71.857 83.7653C71.0755 82.4996 69.235 82.4996 68.4535 83.7653L57.4271 101.623C57.0628 102.213 56.4188 102.572 55.7253 102.572H50.6404C49.0629 102.572 48.1063 100.831 48.9524 99.4999L63.9743 75.8589C64.3902 75.2043 64.3902 74.3682 63.9743 73.7136L48.9524 50.0726C48.1063 48.7411 49.0629 47 50.6404 47H55.6949Z" fill="white"/>
</g>
</svg>
