<svg width="36" height="36" viewBox="0 0 36 36" fill="none" xmlns="http://www.w3.org/2000/svg">
<g id="Facebook - Negative" clip-path="url(#clip0_534_11364)">
<path id="Vector" d="M35.3299 17.665C35.3299 7.90887 27.4211 0 17.665 0C7.90887 0 0 7.90887 0 17.665C0 26.4819 6.45979 33.7901 14.9048 35.1153V22.7713H10.4196V17.665H14.9048V13.7732C14.9048 9.34588 17.5421 6.90038 21.5771 6.90038C23.5093 6.90038 25.5314 7.2454 25.5314 7.2454V11.5926H23.304C21.1096 11.5926 20.4251 12.9544 20.4251 14.3528V17.665H25.3244L24.5412 22.7713H20.4251V35.1153C28.8702 33.7901 35.3299 26.4819 35.3299 17.665Z" fill="white"/>
</g>
<defs>
<clipPath id="clip0_534_11364">
<rect width="35.3299" height="35.3299" fill="white"/>
</clipPath>
</defs>
</svg>
