<svg width="20" height="14" viewBox="0 0 20 14" fill="none" xmlns="http://www.w3.org/2000/svg">
<g id="FLAg">
<path id="Vector" d="M0 0H20V13.3335H0V0Z" fill="white"/>
<path id="Vector_2" d="M11.25 0H8.75V5.41664H0V7.91664H8.75V13.3333H11.25V7.91664H20V5.41664H11.25V0Z" fill="#D80027"/>
<g id="Group">
<path id="Vector_3" d="M15.3821 8.98535L19.9999 11.5508V8.98535H15.3821ZM12.1738 8.98535L19.9999 13.3332V12.1037L14.3869 8.98535H12.1738ZM17.9153 13.3332L12.1738 10.1432V13.3332H17.9153Z" fill="#0052B4"/>
</g>
<path id="Vector_4" d="M12.1738 8.98535L19.9999 13.3332V12.1037L14.3869 8.98535H12.1738Z" fill="white"/>
<path id="Vector_5" d="M12.1738 8.98535L19.9999 13.3332V12.1037L14.3869 8.98535H12.1738Z" fill="#D80027"/>
<g id="Group_2">
<path id="Vector_6" d="M3.52895 8.98535L0 10.9459V8.98535H3.52895ZM7.82609 9.53824V13.3332H0.995742L7.82609 9.53824Z" fill="#0052B4"/>
</g>
<path id="Vector_7" d="M5.61301 8.98535L0 12.1037V13.3332L7.82609 8.98535H5.61301Z" fill="#D80027"/>
<g id="Group_3">
<path id="Vector_8" d="M4.61777 4.34781L0 1.78234V4.34781H4.61777ZM7.82609 4.34781L0 0V1.22945L5.61301 4.34781H7.82609ZM2.08461 0L7.82609 3.19V0H2.08461Z" fill="#0052B4"/>
</g>
<path id="Vector_9" d="M7.82609 4.34781L0 0V1.22945L5.61301 4.34781H7.82609Z" fill="white"/>
<path id="Vector_10" d="M7.82609 4.34781L0 0V1.22945L5.61301 4.34781H7.82609Z" fill="#D80027"/>
<g id="Group_4">
<path id="Vector_11" d="M16.471 4.34785L19.9999 2.38731V4.34785H16.471ZM12.1738 3.79496V0H19.0042L12.1738 3.79496Z" fill="#0052B4"/>
</g>
<path id="Vector_12" d="M14.3869 4.34781L19.9999 1.22945V0L12.1738 4.34781H14.3869Z" fill="#D80027"/>
</g>
</svg>
