<svg width="61" height="63" viewBox="0 0 61 63" fill="none" xmlns="http://www.w3.org/2000/svg">
<g id="Group 2">
<path id="Vector" d="M0.306042 21.1262C5.94172 24.1514 11.9115 25.7124 18.3269 24.8432C20.7179 24.5565 23.0537 23.9193 25.2591 22.9521C33.2161 19.2953 40.7213 20.4545 48.0066 24.5749C50.0923 25.7786 52.0264 27.2278 53.7677 28.8913C53.3934 28.7422 53.0027 28.6259 52.6477 28.4423C44.7696 24.3916 36.6084 24.0997 28.4927 27.4176C20.377 30.7355 12.8738 29.5321 5.6142 25.2995C3.69131 24.1772 1.94112 22.7764 0.104352 21.4837L0.306042 21.1262Z" fill="white"/>
<path id="Vector_2" d="M57.6921 34.9414C55.9981 34.1919 54.5059 33.4676 52.9583 32.8648C45.7989 30.0706 38.6474 30.3766 31.5895 33.277C28.2039 34.6706 24.7366 35.6345 21.0686 35.2642C14.4281 34.579 8.8584 31.5667 4.02734 27.0464C4.89919 27.5124 5.76978 27.9829 6.64288 28.4443C13.6021 32.138 20.8006 32.8087 28.0863 29.5555C38.4111 24.9584 51.7943 28.4809 57.6921 34.9414Z" fill="white"/>
<path id="Vector_3" d="M60.4187 41.8183C58.7247 41.0688 57.2325 40.3445 55.6849 39.7417C48.5255 36.9476 41.374 37.2536 34.3161 40.154C30.9305 41.5475 27.4632 42.5114 23.7952 42.1412C17.1546 41.4559 11.585 38.4437 6.75391 33.9233C7.62575 34.3893 8.49634 34.8599 9.36945 35.3212C16.3287 39.0149 23.5272 39.6857 30.8128 36.4324C41.1376 31.8353 54.5209 35.3578 60.4187 41.8183Z" fill="white"/>
</g>
</svg>
