<svg width="36" height="36" viewBox="0 0 36 36" fill="none" xmlns="http://www.w3.org/2000/svg">
<g id="Instagram - Negative" clip-path="url(#clip0_534_11363)">
<path id="Vector" d="M17.6611 3.18108C22.3809 3.18108 22.9399 3.20178 24.7961 3.28458C26.5212 3.36049 27.4527 3.6503 28.0737 3.89181C28.8949 4.20923 29.4883 4.59565 30.1025 5.20979C30.7235 5.83082 31.103 6.41735 31.4204 7.2385C31.6619 7.85953 31.9518 8.79799 32.0277 10.5162C32.1105 12.3793 32.1312 12.9382 32.1312 17.6512C32.1312 22.371 32.1105 22.93 32.0277 24.7862C31.9518 26.5113 31.6619 27.4428 31.4204 28.0639C31.103 28.885 30.7166 29.4784 30.1025 30.0926C29.4814 30.7136 28.8949 31.0931 28.0737 31.4105C27.4527 31.652 26.5143 31.9419 24.7961 32.0178C22.933 32.1006 22.374 32.1213 17.6611 32.1213C12.9412 32.1213 12.3823 32.1006 10.5261 32.0178C8.80098 31.9419 7.86943 31.652 7.24839 31.4105C6.42725 31.0931 5.83382 30.7067 5.21968 30.0926C4.59865 29.4715 4.21913 28.885 3.90171 28.0639C3.6602 27.4428 3.37038 26.5044 3.29448 24.7862C3.21167 22.9231 3.19097 22.3641 3.19097 17.6512C3.19097 12.9313 3.21167 12.3724 3.29448 10.5162C3.37038 8.79108 3.6602 7.85953 3.90171 7.2385C4.21913 6.41735 4.60555 5.82392 5.21968 5.20979C5.84072 4.58875 6.42725 4.20923 7.24839 3.89181C7.86943 3.6503 8.80788 3.36049 10.5261 3.28458C12.3823 3.20178 12.9412 3.18108 17.6611 3.18108ZM17.6611 0C12.8653 0 12.265 0.0207011 10.3812 0.103506C8.50426 0.18631 7.21389 0.489927 6.09603 0.924651C4.92987 1.38008 3.94311 1.98041 2.96326 2.96716C1.9765 3.94702 1.37617 4.93377 0.920745 6.09304C0.486021 7.2178 0.182404 8.50127 0.0995995 10.3782C0.0167949 12.2689 -0.00390625 12.8692 -0.00390625 17.665C-0.00390625 22.4607 0.0167949 23.0611 0.0995995 24.9449C0.182404 26.8218 0.486021 28.1122 0.920745 29.23C1.37617 30.3962 1.9765 31.3829 2.96326 32.3628C3.94311 33.3426 4.92987 33.9499 6.08913 34.3984C7.21389 34.8331 8.49736 35.1367 10.3743 35.2195C12.2581 35.3023 12.8584 35.323 17.6542 35.323C22.4499 35.323 23.0503 35.3023 24.9341 35.2195C26.811 35.1367 28.1013 34.8331 29.2192 34.3984C30.3785 33.9499 31.3652 33.3426 32.3451 32.3628C33.3249 31.3829 33.9322 30.3962 34.3807 29.2369C34.8154 28.1122 35.119 26.8287 35.2018 24.9518C35.2846 23.068 35.3053 22.4676 35.3053 17.6719C35.3053 12.8761 35.2846 12.2758 35.2018 10.392C35.119 8.51507 34.8154 7.2247 34.3807 6.10684C33.946 4.93377 33.3456 3.94702 32.3589 2.96716C31.379 1.98731 30.3923 1.38008 29.233 0.931551C28.1082 0.496827 26.8248 0.193211 24.9479 0.110406C23.0572 0.0207011 22.4568 0 17.6611 0Z" fill="white"/>
<path id="Vector_2" d="M17.6619 8.59082C12.6522 8.59082 8.58789 12.6551 8.58789 17.6648C8.58789 22.6745 12.6522 26.7388 17.6619 26.7388C22.6716 26.7388 26.7359 22.6745 26.7359 17.6648C26.7359 12.6551 22.6716 8.59082 17.6619 8.59082ZM17.6619 23.5508C14.4118 23.5508 11.7759 20.9149 11.7759 17.6648C11.7759 14.4147 14.4118 11.7788 17.6619 11.7788C20.912 11.7788 23.5479 14.4147 23.5479 17.6648C23.5479 20.9149 20.912 23.5508 17.6619 23.5508Z" fill="white"/>
<path id="Vector_3" d="M29.2114 8.23268C29.2114 9.40574 28.2592 10.3511 27.093 10.3511C25.92 10.3511 24.9746 9.39884 24.9746 8.23268C24.9746 7.05961 25.9269 6.11426 27.093 6.11426C28.2592 6.11426 29.2114 7.06651 29.2114 8.23268Z" fill="white"/>
</g>
<defs>
<clipPath id="clip0_534_11363">
<rect width="35.3299" height="35.3299" fill="white" transform="translate(-0.00390625)"/>
</clipPath>
</defs>
</svg>
