<svg width="30" height="30" viewBox="0 0 30 30" fill="none" xmlns="http://www.w3.org/2000/svg">
<g id="Layer_1" clip-path="url(#clip0_508_14982)">
<path id="Vector" d="M5.20188 0.693758C6.47583 4.21657 8.46806 7.23167 11.6049 9.36155C12.7594 10.1716 14.027 10.8072 15.3667 11.248C20.2657 12.7654 23.0845 16.2058 24.6493 20.8512C25.0879 22.1916 25.3644 23.5798 25.473 24.986C25.3681 24.7746 25.2433 24.5711 25.1604 24.3522C23.3098 19.5054 19.8659 16.1866 15.0302 14.4593C10.1944 12.7321 7.39387 9.27329 5.88408 4.58901C5.48466 3.34773 5.26941 2.0526 4.97415 0.77074L5.20188 0.693758Z" fill="#005C8A"/>
<path id="Vector_2" d="M24.8187 29.1587C24.3732 28.1695 24.0059 27.2702 23.5669 26.4022C21.5383 22.3842 18.3008 19.721 14.0896 18.2254C12.0686 17.509 10.18 16.5732 8.72559 14.9774C6.09848 12.0818 4.84823 8.59046 4.50977 4.73047C4.70764 5.27456 4.90317 5.82018 5.1034 6.36275C6.69296 10.6946 9.56902 13.8021 14.0176 15.2329C20.3166 17.2663 24.7739 24.0357 24.8187 29.1587Z" fill="#005C8A"/>
</g>
<defs>
<clipPath id="clip0_508_14982">
<rect width="25.3658" height="23.7099" fill="white" transform="translate(5 0.650391) rotate(12.124)"/>
</clipPath>
</defs>
</svg>
