<svg width="36" height="36" viewBox="0 0 36 36" fill="none" xmlns="http://www.w3.org/2000/svg">
<g id="YouTube - Negative" clip-path="url(#clip0_534_11362)">
<path id="Vector" d="M35.6479 10.5989C35.6479 10.5989 35.3029 8.16307 34.2403 7.09351C32.8947 5.68583 31.3904 5.67893 30.7004 5.59612C25.7597 5.2373 18.3418 5.2373 18.3418 5.2373H18.328C18.328 5.2373 10.9101 5.2373 5.96941 5.59612C5.27938 5.67893 3.77509 5.68583 2.42952 7.09351C1.36686 8.16307 1.02874 10.5989 1.02874 10.5989C1.02874 10.5989 0.669922 13.4626 0.669922 16.3193V18.9967C0.669922 21.8534 1.02184 24.7171 1.02184 24.7171C1.02184 24.7171 1.36686 27.1529 2.42262 28.2225C3.76819 29.6302 5.53469 29.5818 6.32133 29.7337C9.15049 30.0028 18.3349 30.0856 18.3349 30.0856C18.3349 30.0856 25.7597 30.0718 30.7004 29.7199C31.3904 29.6371 32.8947 29.6302 34.2403 28.2225C35.3029 27.1529 35.6479 24.7171 35.6479 24.7171C35.6479 24.7171 35.9999 21.8603 35.9999 18.9967V16.3193C35.9999 13.4626 35.6479 10.5989 35.6479 10.5989ZM14.6846 22.2467V12.3171L24.2278 17.2992L14.6846 22.2467Z" fill="white"/>
</g>
<defs>
<clipPath id="clip0_534_11362">
<rect width="35.3299" height="35.3299" fill="white" transform="translate(0.669922)"/>
</clipPath>
</defs>
</svg>
